<svg width="24" height="24" viewBox="0 0 24 24" fill="none" xmlns="http://www.w3.org/2000/svg">
<rect width="24" height="24" fill="#2F3731"/>
<path d="M11.624 7.22201C10.748 7.22201 9.392 6.22601 7.964 6.26201C6.08 6.28601 4.352 7.35401 3.38 9.04601C1.424 12.442 2.876 17.458 4.784 20.218C5.72 21.562 6.824 23.074 8.288 23.026C9.692 22.966 10.22 22.114 11.924 22.114C13.616 22.114 14.096 23.026 15.584 22.99C17.096 22.966 18.056 21.622 18.98 20.266C20.048 18.706 20.492 17.194 20.516 17.11C20.48 17.098 17.576 15.982 17.54 12.622C17.516 9.81401 19.832 8.47001 19.94 8.41001C18.62 6.47801 16.592 6.26201 15.884 6.21401C14.036 6.07001 12.488 7.22201 11.624 7.22201V7.22201ZM14.744 4.39001C15.524 3.45401 16.04 2.14601 15.896 0.850006C14.78 0.898006 13.436 1.59401 12.632 2.53001C11.912 3.35801 11.288 4.69001 11.456 5.96201C12.692 6.05801 13.964 5.32601 14.744 4.39001V4.39001Z" fill="#808782"/>
</svg>
