<svg width="61" height="61" viewBox="0 0 61 61" fill="none" xmlns="http://www.w3.org/2000/svg">
<path d="M10.977 51.374C11.3632 52.9968 12.2146 54.4716 13.4269 55.6174C14.6392 56.7633 16.1596 57.5303 17.8015 57.8244C19.4435 58.1186 21.1356 57.927 22.6703 57.2733C24.205 56.6195 25.5154 55.532 26.4409 54.1442C26.5106 54.0394 26.6087 53.9568 26.7238 53.906C26.8389 53.8552 26.9661 53.8383 27.0904 53.8574C27.2148 53.8769 27.3311 53.9316 27.4255 54.0149C27.5199 54.0983 27.5885 54.2069 27.6234 54.3279C28.1018 55.9208 29.0313 57.3411 30.2996 58.4171C31.5679 59.4931 33.1206 60.1788 34.7702 60.3914C36.4198 60.6039 38.0956 60.3342 39.5952 59.6148C41.0948 58.8954 42.354 57.7572 43.2206 56.3375L43.237 56.3104C44.3414 54.484 44.7204 52.3097 44.2989 50.2174C44.2733 50.0938 44.2837 49.9655 44.3286 49.8476C44.3736 49.7297 44.4514 49.6271 44.5528 49.552C44.6542 49.4775 44.7747 49.4333 44.9002 49.4246C45.0258 49.4159 45.1512 49.4431 45.2619 49.503C47.2046 50.564 49.4819 50.8343 51.6191 50.2575C53.7562 49.6808 55.5883 48.3014 56.7334 46.4071C57.8786 44.5127 58.2484 42.2494 57.7659 40.089C57.2833 37.9287 55.9856 36.0379 54.1432 34.8108C54.0384 34.7411 53.9558 34.643 53.905 34.5279C53.8542 34.4128 53.8373 34.2856 53.8564 34.1613C53.8758 34.0366 53.9305 33.9201 54.014 33.8254C54.0974 33.7308 54.2063 33.662 54.3276 33.6272C56.3784 33.0286 58.1296 31.6812 59.2338 29.8522L59.2476 29.8294C60.0971 28.4015 60.516 26.7586 60.4538 25.0983C60.3916 23.438 59.851 21.8311 58.897 20.4708C57.943 19.1105 56.6163 18.0549 55.0765 17.4309C53.5366 16.8069 51.8493 16.6411 50.2175 16.9535C50.0941 16.9789 49.9661 16.9685 49.8484 16.9237C49.7307 16.8788 49.6283 16.8013 49.5532 16.7002C49.4785 16.599 49.4343 16.4785 49.4258 16.353C49.4173 16.2275 49.4449 16.1022 49.5052 15.9918C50.5425 14.0506 50.7956 11.7854 50.2124 9.66305C49.6292 7.54072 48.2542 5.72295 46.3706 4.58433C44.487 3.44571 42.2384 3.07299 40.0881 3.54298C37.9379 4.01297 36.0499 5.28985 34.8131 7.11051C34.7427 7.21502 34.6441 7.29736 34.5287 7.34791C34.4133 7.39846 34.2859 7.41513 34.1614 7.39598C34.0367 7.37642 33.9203 7.32169 33.8257 7.23823C33.7311 7.15476 33.6623 7.04603 33.6273 6.9248C33.1539 5.33069 32.2271 3.90866 30.9598 2.83189C29.6926 1.75512 28.1396 1.07007 26.4899 0.8602C24.8403 0.650326 23.1652 0.924675 21.6687 1.64983C20.1722 2.37499 18.9189 3.51966 18.0614 4.94443L18.045 4.97159C16.9407 6.78699 16.5517 8.94838 16.9535 11.0349C16.979 11.1582 16.9686 11.2863 16.9238 11.4039C16.8789 11.5216 16.8014 11.6241 16.7003 11.6992C16.5991 11.7738 16.4786 11.818 16.3531 11.8265C16.2276 11.835 16.1023 11.8075 15.9919 11.7471C14.0507 10.7099 11.7855 10.4567 9.66314 11.0399C7.54081 11.6231 5.72304 12.9982 4.58442 14.8818C3.44579 16.7654 3.07308 19.014 3.54307 21.1642C4.01306 23.3145 5.28994 25.2025 7.1106 26.4393C7.21505 26.5095 7.29739 26.6079 7.34805 26.7231C7.39871 26.8383 7.41559 26.9655 7.39672 27.0899C7.37717 27.2143 7.32251 27.3306 7.23916 27.425C7.15581 27.5194 7.04723 27.588 6.9262 27.6229C4.89114 28.2335 3.15619 29.5797 2.05916 31.3993L2.04274 31.4265C1.1761 32.8475 0.742159 34.4901 0.793952 36.1537C0.845745 37.8173 1.38103 39.4298 2.33438 40.7941C3.28774 42.1584 4.61787 43.2155 6.16224 43.8361C7.70661 44.4567 9.39832 44.614 11.0306 44.2888C11.1542 44.2634 11.2825 44.2738 11.4003 44.3188C11.5182 44.3637 11.6208 44.4414 11.696 44.5427C11.7706 44.6441 11.8147 44.7646 11.8234 44.8901C11.8321 45.0156 11.8049 45.1411 11.7451 45.2517C10.7355 47.1256 10.4616 49.3088 10.977 51.374ZM21.9346 25.3721C22.9737 23.6531 24.4993 22.2808 26.3184 21.4288C28.1375 20.5767 30.1683 20.2833 32.1542 20.5855C34.14 20.8877 35.9917 21.772 37.475 23.1265C38.9582 24.4811 40.0065 26.2451 40.4873 28.1954C40.9681 30.1457 40.8597 32.1948 40.1759 34.0836C39.492 35.9723 38.2635 37.6159 36.6456 38.8064C35.0277 39.9969 33.0931 40.6809 31.0865 40.772C29.0798 40.863 27.0912 40.3569 25.3722 39.3178C23.0694 37.9222 21.4142 35.6702 20.7697 33.0558C20.1253 30.4413 20.5442 27.678 21.9346 25.3721V25.3721Z" fill="#808782"/>
</svg>
