<svg width="9" height="17" viewBox="0 0 9 17" fill="none" xmlns="http://www.w3.org/2000/svg">
<path d="M8.68041 0.126384C7.93928 0.0397605 7.19443 -0.00239462 6.44914 0.000104939C3.97837 0.000104939 2.44286 1.73401 2.44286 4.5251V6.42009H0.367347C0.26992 6.42009 0.176484 6.46273 0.107593 6.53864C0.0387022 6.61454 0 6.71749 0 6.82483V9.94133C0 10.0487 0.0387022 10.1516 0.107593 10.2275C0.176484 10.3034 0.26992 10.3461 0.367347 10.3461H2.44286V16.5953C2.44286 16.7026 2.48156 16.8056 2.55045 16.8815C2.61934 16.9574 2.71278 17 2.8102 17H5.73282C5.83024 17 5.92368 16.9574 5.99257 16.8815C6.06146 16.8056 6.10016 16.7026 6.10016 16.5953V10.3461H8.16906C8.25825 10.3461 8.3444 10.3104 8.41146 10.2456C8.47851 10.1808 8.52188 10.0914 8.53347 9.99395L8.89861 6.87745C8.90541 6.82033 8.90106 6.76226 8.88586 6.70714C8.87065 6.65202 8.84494 6.60111 8.81045 6.55781C8.77595 6.51452 8.73346 6.47984 8.68582 6.45609C8.63818 6.43234 8.58649 6.42007 8.5342 6.42009H6.10016V4.83432C6.10016 4.04913 6.24343 3.72129 7.13461 3.72129H8.63265C8.73008 3.72129 8.82352 3.67864 8.89241 3.60274C8.9613 3.52684 9 3.42389 9 3.31655V0.527886C9.00004 0.429622 8.96764 0.334696 8.90883 0.260819C8.85003 0.186941 8.76884 0.139158 8.68041 0.126384ZM8.26531 2.911L7.13388 2.91181C5.54914 2.91181 5.36547 4.00946 5.36547 4.83432V6.82564C5.36547 6.93285 5.40407 7.03567 5.4728 7.11155C5.54154 7.18743 5.63478 7.23017 5.73208 7.23038H8.1169L7.8458 9.5374H5.73282C5.63539 9.5374 5.54195 9.58004 5.47306 9.65595C5.40417 9.73185 5.36547 9.8348 5.36547 9.94214V16.1897H3.17755V9.94214C3.17755 9.8348 3.13885 9.73185 3.06996 9.65595C3.00107 9.58004 2.90763 9.5374 2.8102 9.5374H0.735429V7.23038H2.8102C2.90763 7.23038 3.00107 7.18774 3.06996 7.11184C3.13885 7.03593 3.17755 6.93299 3.17755 6.82564V4.5251C3.17755 2.19865 4.40082 0.809585 6.44914 0.809585C7.19045 0.809585 7.85975 0.854107 8.26531 0.892962V2.911Z" fill="white" fill-opacity="0.5"/>
</svg>
