<svg width="20" height="21" viewBox="0 0 20 21" fill="none" xmlns="http://www.w3.org/2000/svg">
<path fill-rule="evenodd" clip-rule="evenodd" d="M9.99999 0.880005C7.3172 0.880005 6.98051 0.891105 5.92639 0.937725C4.87455 0.984345 4.15635 1.14714 3.52783 1.38469C2.8687 1.6264 2.27165 2.00521 1.77832 2.49469C1.27552 2.97525 0.886469 3.55685 0.638315 4.19891C0.394355 4.81015 0.227915 5.50944 0.179275 6.5336C0.131395 7.55998 0.119995 7.8878 0.119995 10.5C0.119995 13.1122 0.131395 13.44 0.179275 14.4664C0.227155 15.4906 0.394355 16.1899 0.638315 16.8011C0.891395 17.4338 1.22884 17.9703 1.77832 18.5053C2.27165 18.9948 2.8687 19.3736 3.52783 19.6153C4.15635 19.8521 4.87455 20.0149 5.92639 20.0623C6.98051 20.1089 7.3172 20.12 9.99999 20.12C12.6828 20.12 13.0195 20.1089 14.0736 20.0623C15.1254 20.0157 15.8436 19.8529 16.4714 19.6153C17.1308 19.3737 17.7281 18.9949 18.2217 18.5053C18.7245 18.0248 19.1135 17.4432 19.3617 16.8011C19.6049 16.1899 19.7721 15.4906 19.8207 14.4664C19.8686 13.44 19.88 13.1122 19.88 10.5C19.88 7.8878 19.8686 7.55998 19.8207 6.5336C19.7728 5.50944 19.6056 4.81015 19.3609 4.19891C19.113 3.55692 18.7242 2.97532 18.2217 2.49469C17.7281 2.0051 17.1308 1.62629 16.4714 1.38469C15.8436 1.14789 15.1254 0.985085 14.0736 0.937725C13.0195 0.891105 12.6828 0.880005 9.99999 0.880005ZM9.99999 2.61308C12.638 2.61308 12.9503 2.62345 13.9923 2.66933C14.9552 2.71225 15.4788 2.86913 15.8269 3.00085C16.2882 3.17549 16.6173 3.38343 16.9631 3.72013C17.3089 4.05683 17.5225 4.37725 17.7018 4.82643C17.8371 5.16535 17.9982 5.67446 18.0423 6.61278C18.0894 7.62658 18.1001 7.93147 18.1001 10.5C18.1001 13.0685 18.0894 13.3727 18.0423 14.3872C17.9982 15.3255 17.8371 15.8347 17.7018 16.1736C17.5436 16.5915 17.2911 16.9695 16.9631 17.2799C16.6443 17.5993 16.2561 17.8451 15.8269 17.9992C15.4788 18.1309 14.9552 18.2878 13.9923 18.3307C12.9511 18.3766 12.638 18.3869 9.99999 18.3869C7.36204 18.3869 7.04891 18.3766 6.00771 18.3307C5.04403 18.2878 4.52116 18.1309 4.17308 17.9992C3.7439 17.8451 3.35565 17.5993 3.03688 17.2799C2.70888 16.9695 2.45646 16.5914 2.29816 16.1736C2.16288 15.8347 2.00176 15.3255 1.95768 14.3872C1.91056 13.3734 1.89992 13.0685 1.89992 10.5C1.89992 7.93147 1.91056 7.62732 1.95768 6.61278C2.00176 5.67446 2.16288 5.16535 2.29816 4.82643C2.47752 4.37725 2.69108 4.05683 3.03688 3.72013C3.35566 3.40072 3.74391 3.15494 4.17308 3.00085C4.52116 2.86913 5.04403 2.71225 6.00771 2.66933C7.04891 2.62345 7.36204 2.61308 9.99999 2.61308" fill="white" fill-opacity="0.5"/>
<path fill-rule="evenodd" clip-rule="evenodd" d="M10.0001 5.32002C8.5891 5.32002 7.23594 5.86577 6.23825 6.83721C5.24055 7.80865 4.68005 9.1262 4.68005 10.5C4.68005 11.8738 5.24055 13.1914 6.23825 14.1628C7.23594 15.1343 8.5891 15.68 10.0001 15.68C11.411 15.68 12.7642 15.1343 13.7619 14.1628C14.7596 13.1914 15.3201 11.8738 15.3201 10.5C15.3201 9.1262 14.7596 7.80865 13.7619 6.83721C12.7642 5.86577 11.411 5.32002 10.0001 5.32002ZM10.0001 13.83C9.09301 13.83 8.22312 13.4792 7.58175 12.8547C6.94037 12.2302 6.58005 11.3832 6.58005 10.5C6.58005 9.61685 6.94037 8.76985 7.58175 8.14536C8.22312 7.52086 9.09301 7.17002 10.0001 7.17002C10.9071 7.17002 11.777 7.52086 12.4184 8.14536C13.0597 8.76985 13.4201 9.61685 13.4201 10.5C13.4201 11.3832 13.0597 12.2302 12.4184 12.8547C11.777 13.4792 10.9071 13.83 10.0001 13.83ZM16.6121 5.39402C16.6121 5.54951 16.5806 5.70347 16.5195 5.84712C16.4584 5.99077 16.3688 6.12129 16.2559 6.23124C16.143 6.34118 16.0089 6.42839 15.8614 6.4879C15.7139 6.5474 15.5557 6.57802 15.3961 6.57802C15.2364 6.57802 15.0782 6.5474 14.9307 6.4879C14.7832 6.42839 14.6491 6.34118 14.5362 6.23124C14.4233 6.12129 14.3337 5.99077 14.2726 5.84712C14.2115 5.70347 14.1801 5.54951 14.1801 5.39402C14.1801 5.08001 14.3082 4.77885 14.5362 4.55681C14.7643 4.33476 15.0735 4.21002 15.3961 4.21002C15.7186 4.21002 16.0278 4.33476 16.2559 4.55681C16.4839 4.77885 16.6121 5.08001 16.6121 5.39402Z" fill="white" fill-opacity="0.5"/>
</svg>
