<svg width="24" height="24" viewBox="0 0 24 24" fill="none" xmlns="http://www.w3.org/2000/svg">
<path d="M22.5 3.58898C22.4999 3.50073 22.4766 3.41405 22.4322 3.33776C22.3878 3.26147 22.3241 3.19827 22.2474 3.15459C22.1707 3.11092 22.0838 3.08832 21.9956 3.08909C21.9073 3.08986 21.8209 3.11397 21.745 3.15898C21.0412 3.57807 20.2768 3.88571 19.479 4.07098C18.607 3.2385 17.4465 2.77616 16.241 2.78098C15.5862 2.78191 14.9387 2.91875 14.3396 3.18283C13.7404 3.44691 13.2026 3.83248 12.7602 4.31516C12.3177 4.79783 11.9803 5.36708 11.7692 5.9869C11.5582 6.60672 11.478 7.2636 11.534 7.91598C8.51108 7.59472 5.73748 6.09237 3.81695 3.73598C3.76569 3.67338 3.70001 3.62415 3.62553 3.59253C3.55106 3.5609 3.47002 3.54782 3.38938 3.55441C3.30874 3.561 3.2309 3.58706 3.16255 3.63036C3.09419 3.67365 3.03737 3.73289 2.99695 3.80298C2.58207 4.52647 2.36384 5.34598 2.36395 6.17998C2.36273 7.09532 2.62746 7.99129 3.12595 8.75898L3.06595 8.72598C2.9876 8.68752 2.90061 8.67007 2.81349 8.67532C2.72637 8.68058 2.64211 8.70838 2.56895 8.75598C2.49273 8.80554 2.43017 8.87345 2.38702 8.95347C2.34386 9.03349 2.32149 9.12307 2.32195 9.21398C2.31795 9.33198 2.32495 9.45098 2.34395 9.56698C2.39121 10.2272 2.57763 10.87 2.89096 11.453C3.20429 12.0361 3.63744 12.5462 4.16195 12.95C4.09802 12.9688 4.0385 13.0002 3.98689 13.0424C3.93528 13.0845 3.89261 13.1366 3.8614 13.1955C3.83019 13.2543 3.81106 13.3189 3.80515 13.3852C3.79923 13.4516 3.80665 13.5185 3.82695 13.582C4.05796 14.3023 4.45926 14.9562 4.99682 15.4884C5.53439 16.0206 6.19237 16.4153 6.91495 16.639C5.43944 17.465 3.74007 17.8022 2.06095 17.602C1.94843 17.5879 1.83447 17.6125 1.73777 17.6717C1.64107 17.7309 1.56737 17.8213 1.52877 17.9279C1.49016 18.0345 1.48895 18.1511 1.52532 18.2585C1.5617 18.3659 1.6335 18.4578 1.72895 18.519C3.7384 19.8129 6.07798 20.5006 8.46795 20.5C11.1791 20.5299 13.8242 19.6631 15.9918 18.0344C18.1595 16.4057 19.7282 14.1064 20.454 11.494C20.793 10.357 20.966 9.17598 20.968 7.98898C20.968 7.86898 20.968 7.74398 20.965 7.61698C21.4851 7.08815 21.89 6.45731 22.1542 5.76422C22.4183 5.07114 22.5361 4.33083 22.5 3.58998V3.58898ZM20.076 7.12198C19.9938 7.2191 19.9519 7.34398 19.959 7.47098C20.0136 8.73512 19.8568 9.9995 19.495 11.212C18.8496 13.6282 17.4122 15.7581 15.413 17.2607C13.4138 18.7633 10.9683 19.5518 8.46795 19.5C6.94198 19.5 5.43138 19.1951 4.02495 18.603C5.67787 18.4196 7.24589 17.7751 8.54995 16.743C8.63109 16.6792 8.6905 16.5919 8.72003 16.493C8.74957 16.3941 8.74778 16.2885 8.71491 16.1907C8.68205 16.0928 8.61971 16.0076 8.53647 15.9466C8.45322 15.8856 8.35314 15.8518 8.24995 15.85C7.60991 15.8396 6.98345 15.6637 6.43147 15.3396C5.8795 15.0154 5.42079 14.5539 5.09995 14C5.52495 14.001 5.94695 13.943 6.35395 13.826C6.46122 13.7945 6.55486 13.7281 6.61992 13.6372C6.68498 13.5463 6.71771 13.4362 6.71287 13.3245C6.70804 13.2129 6.66592 13.106 6.59325 13.0211C6.52057 12.9362 6.42154 12.878 6.31195 12.856C5.59614 12.7127 4.93858 12.3613 4.42177 11.8457C3.90496 11.3302 3.55192 10.6734 3.40695 9.95798C3.83163 10.0957 4.27371 10.1725 4.71995 10.186C4.8299 10.1941 4.93923 10.1636 5.02906 10.0997C5.1189 10.0358 5.18359 9.94252 5.21195 9.83598C5.24462 9.73257 5.24277 9.62134 5.2067 9.51906C5.17062 9.41679 5.10227 9.32902 5.01195 9.26898C4.5032 8.93034 4.08636 8.47081 3.79875 7.93156C3.51115 7.3923 3.36176 6.79014 3.36395 6.17898C3.36395 5.76598 3.43095 5.35598 3.56395 4.96598C5.78099 7.36001 8.84534 8.79351 12.104 8.96098C12.1818 8.96931 12.2605 8.95717 12.3322 8.92578C12.4039 8.89439 12.4662 8.84482 12.513 8.78198C12.5625 8.72255 12.5977 8.65242 12.6155 8.57711C12.6334 8.50179 12.6335 8.42336 12.616 8.34798C12.5499 8.07217 12.5164 7.78959 12.516 7.50598C12.517 6.51846 12.9096 5.57165 13.6077 4.87318C14.3058 4.1747 15.2524 3.78157 16.24 3.77998C16.7486 3.77854 17.2521 3.88256 17.7185 4.08549C18.1849 4.28841 18.6043 4.58584 18.95 4.95898C19.008 5.02091 19.0809 5.06701 19.1618 5.0929C19.2426 5.1188 19.3287 5.12365 19.412 5.10698C20.1216 4.96726 20.8116 4.74195 21.467 4.43598C21.2966 5.45529 20.8095 6.39507 20.075 7.12198H20.076Z" fill="white" fill-opacity="0.5"/>
</svg>
